# Blender v2.69 (sub 0) OBJ File: 'Finn.blend'
# www.blender.org
mtllib Finn.mtl
o Cube_Cube.001
v -0.223625 1.441946 0.133747
v -0.208893 1.441547 -0.142252
v -0.192470 2.015511 0.060890
v -0.183429 2.000999 -0.150359
v -0.177516 2.069477 -0.005332
v -0.173771 2.061159 -0.091577
v -0.270547 1.464743 -0.082074
v -0.276649 1.470816 0.058053
v -0.101213 1.362823 -0.148343
v -0.095201 2.016830 0.076436
v -0.096502 2.028698 -0.162974
v -0.120101 1.360486 0.162238
v -0.069516 1.146149 0.082074
v -0.061333 1.140489 -0.058053
v -0.274465 0.949984 0.158716
v -0.268900 0.950797 -0.161317
v -0.353459 0.951309 -0.069421
v -0.355764 0.950972 0.063141
v -0.151622 0.949736 -0.158716
v -0.157187 0.948923 0.161317
v -0.072628 0.948411 0.069421
v -0.070323 0.948748 -0.063141
v -0.200803 1.702006 -0.121877
v -0.247962 1.693205 0.040630
v -0.247762 1.693257 -0.064918
v -0.114546 1.671133 0.131531
v -0.246612 0.946984 0.076745
v -0.243571 0.947631 -0.078003
v -0.289784 0.948039 -0.033567
v -0.291044 0.947771 0.030531
v -0.179475 0.946788 -0.076745
v -0.182516 0.946140 0.078003
v -0.136303 0.945733 0.033567
v -0.135043 0.946001 -0.030531
v -0.262466 0.256391 0.067971
v -0.259425 0.256391 -0.086776
v -0.305638 0.256391 -0.042341
v -0.306898 0.256391 0.021758
v -0.195329 0.256391 -0.085518
v -0.198370 0.256391 0.069229
v -0.152157 0.256391 0.024794
v -0.150897 0.256391 -0.039305
v -0.284017 2.367370 0.087047
v -0.299234 2.602011 0.076651
v -0.111465 2.170813 0.035639
v -0.206972 2.906212 -0.163692
v -0.156438 2.793469 0.037495
v -0.156438 2.796085 -0.217063
v -0.173553 2.204729 -0.241526
v -0.194733 1.930872 0.068297
v -0.185692 1.910791 -0.153811
v -0.101176 1.916317 -0.169427
v -0.409479 1.993353 0.053982
v -0.401655 1.981353 -0.139932
v -0.415195 2.045555 -0.009317
v -0.411955 2.038277 -0.091177
v -0.398154 1.912251 0.061641
v -0.390330 1.894681 -0.135986
v -0.387855 1.849757 0.009173
v -0.384614 1.842479 -0.072687
v -0.215785 1.856825 -0.100574
v -0.266063 1.916092 0.071180
v -0.262543 1.896316 -0.140583
v -0.289758 1.993463 -0.150092
v -0.294908 2.068701 -0.009573
v -0.294908 2.056808 -0.097431
v -0.293740 2.004310 0.056024
v -0.191327 1.855861 -0.143091
v -0.100857 1.904182 0.101285
v -0.114421 1.853101 -0.156178
v -0.219530 1.865142 0.012551
v -0.084808 2.093251 -0.117194
v -0.084808 2.093251 0.008962
v -0.283937 2.620343 -0.219101
v -0.268743 2.757866 0.025391
v -0.268743 2.757774 -0.192225
v -0.232598 2.271706 -0.176861
v -0.232598 2.239281 0.095977
v -0.284017 2.376820 -0.209974
v -0.405426 1.972471 0.013779
v -0.400914 1.962338 -0.100200
v -0.408723 2.002578 -0.022728
v -0.406854 1.998380 -0.069940
v -0.398895 1.925696 0.018196
v -0.394383 1.915563 -0.095783
v -0.392955 1.889654 -0.012064
v -0.391086 1.885456 -0.059276
v -1.125099 1.875402 0.009324
v -1.120587 1.865268 -0.104654
v -1.128396 1.905509 -0.027183
v -1.126527 1.901311 -0.074394
v -1.114885 1.829088 0.013742
v -1.110373 1.818954 -0.100237
v -1.102868 1.800779 -0.016519
v -1.100999 1.796582 -0.063730
v -0.303686 1.361957 0.058053
v -0.236222 1.365507 0.144992
v -0.217334 1.367844 -0.148372
v -0.295805 1.355884 -0.082074
v -0.113744 1.721286 -0.141244
v -0.201281 1.682270 0.105274
v -0.132781 2.176938 0.121718
v -0.207013 2.903394 -0.010807
v -0.276442 2.882570 -0.014237
v -0.276401 2.885389 -0.156574
v -0.110829 2.170912 -0.151542
v -0.130015 2.117812 -0.152356
v -0.130044 2.106689 0.027809
v -0.156116 2.570273 0.172708
v -0.148814 2.686897 0.158168
v -0.144661 2.288871 0.168639
v -0.153093 2.386613 0.171882
v -0.237614 2.564959 0.151791
v -0.227031 2.662162 0.144570
v -0.201857 2.302903 0.152806
v -0.237669 2.392328 0.152602
v -0.132338 2.259590 0.159118
v -0.164111 2.686248 0.184155
v -0.252910 2.564311 0.177779
v -0.242328 2.661513 0.170557
v -0.217154 2.302254 0.178793
v -0.252966 2.391679 0.178590
v -0.147634 2.258942 0.185105
v -0.190461 2.386488 -0.347745
v -0.194801 2.627688 -0.356229
v -0.184317 2.750056 -0.311373
v -0.178353 2.264274 -0.315925
v -0.170384 2.872885 -0.195178
v -0.290034 2.834369 -0.181442
v -0.290075 2.831549 0.006175
v -0.170425 2.870066 0.017303
v -0.272060 0.256391 0.089904
v -0.268149 0.256391 -0.109069
v -0.327570 0.256391 -0.051934
v -0.329189 0.256391 0.030483
v -0.185735 0.256391 -0.107451
v -0.189646 0.256391 0.091521
v -0.130225 0.256391 0.034387
v -0.128605 0.256391 -0.048030
v -0.272060 0.169239 0.098660
v -0.268149 0.169239 -0.115437
v -0.327570 0.169239 -0.058302
v -0.329189 0.169239 0.039239
v -0.185735 0.169239 -0.113819
v -0.189646 0.169239 0.100277
v -0.130225 0.169239 0.043143
v -0.128605 0.169239 -0.054398
v -0.262060 0.169239 0.075800
v -0.259056 0.169239 -0.092201
v -0.304711 0.169239 -0.048303
v -0.305955 0.169239 0.030144
v -0.195735 0.169239 -0.090959
v -0.198739 0.169239 0.077042
v -0.153084 0.169239 0.033144
v -0.151840 0.169239 -0.045304
v -0.159899 0.095402 0.140540
v -0.268584 -0.000264 -0.126131
v -0.333077 -0.000264 -0.060184
v -0.334835 -0.000264 0.021574
v -0.179136 -0.000264 -0.124265
v -0.198739 0.105718 0.169537
v -0.135957 -0.000264 0.026080
v -0.124587 -0.000264 -0.055677
v -0.272313 0.085182 0.273367
v -0.313916 0.085182 0.227712
v -0.186045 0.086347 0.271729
v -0.153084 0.085182 0.230711
v -0.282469 -0.000264 0.287187
v -0.339031 -0.000264 0.232354
v -0.171444 0.000902 0.286172
v -0.126374 -0.000264 0.236861
v -0.132753 -0.000264 0.151084
v -0.339031 -0.000264 0.146577
v -0.310539 0.095402 0.151081
v -0.264352 0.105718 0.168295
v -0.141811 0.073374 0.024650
v -0.129991 0.091522 -0.060542
v -0.186332 0.091522 -0.119143
v -0.327804 0.073374 0.020800
v -0.326207 0.091522 -0.064392
v -0.267607 0.091522 -0.120738
v -0.131588 0.037306 0.234183
v -0.177494 0.038472 0.287647
v -0.335765 0.037306 0.230332
v -0.281716 0.037306 0.288933
v -0.138403 0.035395 0.144551
v -0.335765 0.035395 0.140701
v -0.140266 0.785096 0.036492
v -0.144230 0.612760 0.036492
v -0.148193 0.428727 0.027718
v -0.146934 0.428794 -0.036380
v -0.142970 0.612894 -0.027607
v -0.139007 0.785297 -0.027607
v -0.186480 0.785401 0.080927
v -0.190443 0.644796 0.080927
v -0.194407 0.428829 0.072154
v -0.191365 0.428990 -0.082594
v -0.187402 0.588618 -0.073820
v -0.183438 0.785887 -0.073820
v -0.302934 0.429236 0.024682
v -0.298971 0.613779 0.033456
v -0.295007 0.786624 0.033456
v -0.293747 0.786825 -0.030643
v -0.297711 0.613913 -0.030643
v -0.301674 0.429303 -0.039416
v -0.247534 0.786519 -0.075078
v -0.251498 0.589040 -0.075078
v -0.255461 0.429202 -0.083852
v -0.250575 0.786034 0.079669
v -0.254539 0.645217 0.079669
v -0.258502 0.429040 0.070896
v -0.187402 0.636365 -0.073820
v -0.251498 0.636787 -0.075078
v -0.190443 0.590682 0.080927
v -0.254539 0.591104 0.079669
v -0.071072 1.075794 0.075748
v -0.065828 1.073132 -0.060597
v -0.154193 1.096951 0.161778
v -0.142016 1.095227 -0.148569
v -0.338336 1.163303 0.060597
v -0.333756 1.159672 -0.075748
v -0.254544 1.124583 -0.154845
v -0.266720 1.126306 0.151854
v -1.228412 1.875538 0.012701
v -1.222213 1.871810 -0.117835
v -1.236421 1.882538 -0.032269
v -1.233655 1.880016 -0.075703
v -1.137874 1.795128 -0.014875
v -1.172519 1.808650 -0.029430
v -1.167615 1.808853 -0.072150
v -1.207788 1.847629 -0.072824
v -1.211681 1.847997 -0.029305
v -1.277077 1.833534 -0.066886
v -1.277077 1.833534 -0.040360
v -1.288790 1.845647 -0.040580
v -1.288790 1.845647 -0.067886
v -1.288790 1.845647 -0.020619
v -1.277077 1.833534 -0.018365
v -1.288790 1.845647 0.007501
v -1.288790 1.845647 -0.112811
v -1.277077 1.833534 -0.093639
v -1.288790 1.845647 -0.091638
v -1.192021 1.778557 0.022447
v -1.185022 1.765736 0.003967
v -1.203205 1.790285 0.012103
v -1.134984 1.791749 -0.067388
v -1.147246 1.824996 0.018784
v -1.152479 1.813490 -0.107994
v -1.166135 1.855098 -0.120122
v -1.184013 1.894339 -0.026736
v -1.181123 1.890960 -0.079250
v -1.172665 1.886539 0.013870
v -1.277077 1.833534 0.007501
v -1.214433 1.848024 0.012712
v -1.277077 1.833534 -0.112740
v -1.205482 1.845693 -0.121649
v -1.164135 1.867315 0.024404
v -1.169468 1.880268 -0.111301
v -1.247229 1.844628 -0.083235
v -1.247229 1.844628 -0.117077
v -1.263672 1.867434 -0.083670
v -1.262380 1.861652 -0.113615
v -1.247229 1.844628 -0.034877
v -1.247229 1.844628 -0.069859
v -1.263672 1.867434 -0.037043
v -1.263672 1.867434 -0.072413
v -1.247229 1.844628 -0.023880
v -1.263672 1.867434 -0.026444
v -1.247229 1.844628 0.010039
v -1.262704 1.863892 0.010377
v -1.165848 1.800074 0.022544
v -1.183040 1.791658 -0.016887
v -1.157663 1.778730 -0.003525
v -1.176186 1.820185 -0.009085
v -1.199538 1.778751 -0.008243
v -1.186707 1.803192 0.003459
v -0.122673 0.190546 0.043025
v -0.120929 0.190546 -0.055004
v -0.186642 0.190546 0.104532
v -0.182432 0.190546 -0.118974
v -0.336866 0.190546 0.038822
v -0.335122 0.190546 -0.059207
v -0.271153 0.190546 -0.120715
v -0.275363 0.190546 0.102791
v -0.122123 0.234510 -0.051946
v -0.182945 0.234510 -0.115208
v -0.335672 0.234510 0.034852
v -0.123847 0.234510 0.039009
v -0.187109 0.234510 0.099836
v -0.333948 0.234510 -0.056102
v -0.270686 0.234510 -0.116930
v -0.274850 0.234510 0.098115
v -0.507509 1.873715 -0.012929
v -0.720201 1.850316 -0.014291
v -0.916216 1.825489 -0.015051
v -0.922007 1.821292 -0.062263
v -0.742470 1.846119 -0.061503
v -0.505640 1.869518 -0.060141
v -0.514629 1.908256 0.017331
v -0.729180 1.882492 0.015969
v -0.926231 1.856345 0.015209
v -0.929380 1.846211 -0.098770
v -0.748805 1.872358 -0.098010
v -0.510117 1.898122 -0.096648
v -0.938381 1.892677 -0.103187
v -0.757178 1.918903 -0.102427
v -0.517363 1.944808 -0.101065
v -0.938529 1.932918 -0.025716
v -0.740850 1.959143 -0.024955
v -0.525173 1.985048 -0.023593
v -0.523304 1.980851 -0.070805
v -0.763118 1.954946 -0.072167
v -0.944321 1.928720 -0.072927
v -0.935233 1.902811 0.010791
v -0.737553 1.929036 0.011552
v -0.521876 1.954942 0.012914
v -0.689859 1.853545 -0.061503
v -0.696195 1.879785 -0.098010
v -0.704568 1.926329 -0.102427
v -0.710508 1.962372 -0.072167
v -0.116387 1.425128 -0.143806
v -0.129380 1.425287 0.150799
v -0.148224 2.763229 0.129036
v -0.263819 2.730083 0.115212
v -0.311416 1.481402 0.058053
v -0.248584 1.435562 0.152353
v -0.305314 1.478786 -0.082074
v -0.243423 1.435163 -0.158826
v -0.122844 1.416944 0.177627
v -0.137235 1.424592 -0.167201
v 0.223625 1.441946 0.133747
v 0.208893 1.441547 -0.142252
v 0.192470 2.015511 0.060890
v 0.183429 2.000999 -0.150359
v 0.000000 2.033151 -0.164351
v 0.000000 1.384812 -0.150581
v 0.000000 2.017976 0.082461
v 0.000000 1.370697 0.158502
v 0.177516 2.069477 -0.005332
v 0.173771 2.061159 -0.091577
v 0.270547 1.464743 -0.082074
v 0.276649 1.470816 0.058053
v 0.000000 1.144907 -0.104171
v 0.000000 1.144907 0.104171
v 0.000000 2.093251 -0.131171
v 0.000000 2.093251 0.022939
v 0.101213 1.362823 -0.148343
v 0.095201 2.016830 0.076436
v 0.096502 2.028698 -0.162974
v 0.120101 1.360486 0.162238
v 0.069516 1.146149 0.082074
v 0.061333 1.140489 -0.058053
v 0.274465 0.949984 0.158716
v 0.268900 0.950797 -0.161317
v 0.353459 0.951309 -0.069421
v 0.355764 0.950972 0.063141
v 0.151622 0.949736 -0.158716
v 0.157187 0.948923 0.161317
v 0.072628 0.948411 0.069421
v 0.070323 0.948748 -0.063141
v 0.200803 1.702006 -0.121877
v 0.247962 1.693205 0.040630
v 0.247762 1.693257 -0.064918
v 0.114546 1.671133 0.131531
v 0.246612 0.946984 0.076745
v 0.243571 0.947631 -0.078003
v 0.289784 0.948039 -0.033567
v 0.291044 0.947771 0.030531
v 0.179475 0.946788 -0.076745
v 0.182516 0.946140 0.078003
v 0.136303 0.945733 0.033567
v 0.135043 0.946001 -0.030531
v 0.262466 0.256391 0.067971
v 0.259425 0.256391 -0.086776
v 0.305638 0.256391 -0.042341
v 0.306898 0.256391 0.021758
v 0.195329 0.256391 -0.085518
v 0.198370 0.256391 0.069229
v 0.152157 0.256391 0.024794
v 0.150897 0.256391 -0.039305
v 0.284017 2.367370 0.087047
v 0.299234 2.602011 0.076651
v 0.111465 2.170813 0.035639
v 0.000000 2.171013 -0.174713
v 0.206972 2.906212 -0.163692
v 0.000000 2.812292 -0.220376
v 0.156438 2.793469 0.037495
v 0.156438 2.796085 -0.217063
v 0.173553 2.204729 -0.241526
v 0.000000 2.197635 -0.262501
v 0.000000 2.775522 0.136679
v 0.194733 1.930872 0.068297
v 0.185692 1.910791 -0.153811
v 0.000000 1.916138 -0.165897
v 0.101176 1.916317 -0.169427
v 0.409479 1.993353 0.053982
v 0.401655 1.981353 -0.139932
v 0.415195 2.045555 -0.009317
v 0.411955 2.038277 -0.091177
v 0.398154 1.912251 0.061641
v 0.390330 1.894681 -0.135986
v 0.387855 1.849757 0.009173
v 0.384614 1.842479 -0.072687
v 0.215785 1.856825 -0.100574
v 0.266063 1.916092 0.071180
v 0.262543 1.896316 -0.140583
v 0.289758 1.993463 -0.150092
v 0.294908 2.068701 -0.009573
v 0.294908 2.056808 -0.097431
v 0.293740 2.004310 0.056024
v 0.191327 1.855861 -0.143091
v 0.000000 1.853314 -0.160690
v 0.000000 1.904267 0.106962
v 0.100857 1.904182 0.101285
v 0.114421 1.853101 -0.156178
v 0.219530 1.865142 0.012551
v 0.084808 2.093251 -0.117194
v 0.084808 2.093251 0.008962
v 0.283937 2.620343 -0.219101
v 0.268743 2.757866 0.025391
v 0.268743 2.757774 -0.192225
v 0.232598 2.271706 -0.176861
v 0.232598 2.239281 0.095977
v 0.284017 2.376820 -0.209974
v 0.405426 1.972471 0.013779
v 0.400914 1.962338 -0.100200
v 0.408723 2.002578 -0.022728
v 0.406854 1.998380 -0.069940
v 0.398895 1.925696 0.018196
v 0.394383 1.915563 -0.095783
v 0.392955 1.889654 -0.012064
v 0.391086 1.885456 -0.059276
v 1.125099 1.875402 0.009324
v 1.120587 1.865268 -0.104654
v 1.128396 1.905509 -0.027183
v 1.126527 1.901311 -0.074394
v 1.114885 1.829088 0.013742
v 1.110373 1.818954 -0.100237
v 1.102868 1.800779 -0.016519
v 1.100999 1.796582 -0.063730
v 0.303686 1.361957 0.058053
v 0.236222 1.365507 0.144992
v 0.217334 1.367844 -0.148372
v 0.295805 1.355884 -0.082074
v 0.000000 1.719553 -0.146129
v 0.000000 1.660618 0.136415
v 0.113744 1.721286 -0.141244
v 0.201281 1.682270 0.105274
v 0.132781 2.176938 0.121718
v 0.207013 2.903394 -0.010807
v 0.276442 2.882570 -0.014237
v 0.276401 2.885389 -0.156574
v 0.110829 2.170912 -0.151542
v 0.000000 2.118371 -0.191820
v 0.130015 2.117812 -0.152356
v 0.130044 2.106689 0.027809
v 0.000000 2.103052 0.068666
v 0.000000 2.159362 0.059579
v 0.156116 2.570273 0.172708
v 0.000000 2.570273 0.180349
v 0.000000 2.694640 0.162876
v 0.148814 2.686897 0.158168
v 0.144661 2.288871 0.168639
v 0.000000 2.276992 0.176267
v 0.153093 2.386613 0.171882
v 0.000000 2.384105 0.179718
v 0.237614 2.564959 0.151791
v 0.227031 2.662162 0.144570
v 0.201857 2.302903 0.152806
v 0.237669 2.392328 0.152602
v 0.132338 2.259590 0.159118
v 0.000000 2.248769 0.164947
v 0.000000 2.161401 0.144167
v 0.000000 2.693991 0.188863
v 0.164111 2.686248 0.184155
v 0.252910 2.564311 0.177779
v 0.242328 2.661513 0.170557
v 0.217154 2.302254 0.178793
v 0.252966 2.391679 0.178590
v 0.147634 2.258942 0.185105
v 0.000000 2.248121 0.190934
v 0.000000 2.627688 -0.385465
v 0.000000 2.761173 -0.329906
v 0.000000 2.261644 -0.339588
v 0.000000 2.382887 -0.377733
v 0.190461 2.386488 -0.347745
v 0.194801 2.627688 -0.356229
v 0.184317 2.750056 -0.311373
v 0.178353 2.264274 -0.315925
v 0.170384 2.872885 -0.195178
v 0.290034 2.834369 -0.181442
v 0.290075 2.831549 0.006175
v 0.170425 2.870066 0.017303
v 0.272060 0.256391 0.089904
v 0.268149 0.256391 -0.109069
v 0.327570 0.256391 -0.051934
v 0.329189 0.256391 0.030483
v 0.185735 0.256391 -0.107451
v 0.189646 0.256391 0.091521
v 0.130225 0.256391 0.034387
v 0.128605 0.256391 -0.048030
v 0.272060 0.169239 0.098660
v 0.268149 0.169239 -0.115437
v 0.327570 0.169239 -0.058302
v 0.329189 0.169239 0.039239
v 0.185735 0.169239 -0.113819
v 0.189646 0.169239 0.100277
v 0.130225 0.169239 0.043143
v 0.128605 0.169239 -0.054398
v 0.262060 0.169239 0.075800
v 0.259056 0.169239 -0.092201
v 0.304711 0.169239 -0.048303
v 0.305955 0.169239 0.030144
v 0.195735 0.169239 -0.090959
v 0.198739 0.169239 0.077042
v 0.153084 0.169239 0.033144
v 0.151840 0.169239 -0.045304
v 0.159899 0.095402 0.140540
v 0.268584 -0.000264 -0.126131
v 0.333077 -0.000264 -0.060184
v 0.334835 -0.000264 0.021574
v 0.179136 -0.000264 -0.124265
v 0.198739 0.105718 0.169537
v 0.135957 -0.000264 0.026080
v 0.124587 -0.000264 -0.055677
v 0.272313 0.085182 0.273367
v 0.313916 0.085182 0.227712
v 0.186045 0.086347 0.271729
v 0.153084 0.085182 0.230711
v 0.282469 -0.000264 0.287187
v 0.339031 -0.000264 0.232354
v 0.171444 0.000902 0.286172
v 0.126374 -0.000264 0.236861
v 0.132753 -0.000264 0.151084
v 0.339031 -0.000264 0.146577
v 0.310539 0.095402 0.151081
v 0.264352 0.105718 0.168295
v 0.141811 0.073374 0.024650
v 0.129991 0.091522 -0.060542
v 0.186332 0.091522 -0.119143
v 0.327804 0.073374 0.020800
v 0.326207 0.091522 -0.064392
v 0.267607 0.091522 -0.120738
v 0.131588 0.037306 0.234183
v 0.177494 0.038472 0.287647
v 0.335765 0.037306 0.230332
v 0.281716 0.037306 0.288933
v 0.138403 0.035395 0.144551
v 0.335765 0.035395 0.140701
v 0.140266 0.785096 0.036492
v 0.144230 0.612760 0.036492
v 0.148193 0.428727 0.027718
v 0.146934 0.428794 -0.036380
v 0.142970 0.612894 -0.027607
v 0.139007 0.785297 -0.027607
v 0.186480 0.785401 0.080927
v 0.190443 0.644796 0.080927
v 0.194407 0.428829 0.072154
v 0.191365 0.428990 -0.082594
v 0.187402 0.588618 -0.073820
v 0.183438 0.785887 -0.073820
v 0.302934 0.429236 0.024682
v 0.298971 0.613779 0.033456
v 0.295007 0.786624 0.033456
v 0.293747 0.786825 -0.030643
v 0.297711 0.613913 -0.030643
v 0.301674 0.429303 -0.039416
v 0.247534 0.786519 -0.075078
v 0.251498 0.589040 -0.075078
v 0.255461 0.429202 -0.083852
v 0.250575 0.786034 0.079669
v 0.254539 0.645217 0.079669
v 0.258502 0.429040 0.070896
v 0.187402 0.636365 -0.073820
v 0.251498 0.636787 -0.075078
v 0.190443 0.590682 0.080927
v 0.254539 0.591104 0.079669
v 0.071072 1.075794 0.075748
v 0.065828 1.073132 -0.060597
v 0.154193 1.096951 0.161778
v 0.142016 1.095227 -0.148569
v 0.338336 1.163303 0.060597
v 0.333756 1.159672 -0.075748
v 0.254544 1.124583 -0.154845
v 0.266720 1.126306 0.151854
v 1.228412 1.875538 0.012701
v 1.222213 1.871810 -0.117835
v 1.236421 1.882538 -0.032269
v 1.233655 1.880016 -0.075703
v 1.137874 1.795128 -0.014875
v 1.172519 1.808650 -0.029430
v 1.167615 1.808853 -0.072150
v 1.207788 1.847629 -0.072824
v 1.211681 1.847997 -0.029305
v 1.277077 1.833534 -0.066886
v 1.277077 1.833534 -0.040360
v 1.288790 1.845647 -0.040580
v 1.288790 1.845647 -0.067886
v 1.288790 1.845647 -0.020619
v 1.277077 1.833534 -0.018365
v 1.288790 1.845647 0.007501
v 1.288790 1.845647 -0.112811
v 1.277077 1.833534 -0.093639
v 1.288790 1.845647 -0.091638
v 1.192021 1.778557 0.022447
v 1.185022 1.765736 0.003967
v 1.203205 1.790285 0.012103
v 1.134984 1.791749 -0.067388
v 1.147246 1.824996 0.018784
v 1.152479 1.813490 -0.107994
v 1.166135 1.855098 -0.120122
v 1.184013 1.894339 -0.026736
v 1.181123 1.890960 -0.079250
v 1.172665 1.886539 0.013870
v 1.277077 1.833534 0.007501
v 1.214433 1.848024 0.012712
v 1.277077 1.833534 -0.112740
v 1.205482 1.845693 -0.121649
v 1.164135 1.867315 0.024404
v 1.169468 1.880268 -0.111301
v 1.247229 1.844628 -0.083235
v 1.247229 1.844628 -0.117077
v 1.263672 1.867434 -0.083670
v 1.262380 1.861652 -0.113615
v 1.247229 1.844628 -0.034877
v 1.247229 1.844628 -0.069859
v 1.263672 1.867434 -0.037043
v 1.263672 1.867434 -0.072413
v 1.247229 1.844628 -0.023880
v 1.263672 1.867434 -0.026444
v 1.247229 1.844628 0.010039
v 1.262704 1.863892 0.010377
v 1.165848 1.800074 0.022544
v 1.183040 1.791658 -0.016887
v 1.157663 1.778730 -0.003525
v 1.176186 1.820185 -0.009085
v 1.199538 1.778751 -0.008243
v 1.186707 1.803192 0.003459
v 0.122673 0.190546 0.043025
v 0.120929 0.190546 -0.055004
v 0.186642 0.190546 0.104532
v 0.182432 0.190546 -0.118974
v 0.336866 0.190546 0.038822
v 0.335122 0.190546 -0.059207
v 0.271153 0.190546 -0.120715
v 0.275363 0.190546 0.102791
v 0.122123 0.234510 -0.051946
v 0.182945 0.234510 -0.115208
v 0.335672 0.234510 0.034852
v 0.123847 0.234510 0.039009
v 0.187109 0.234510 0.099836
v 0.333948 0.234510 -0.056102
v 0.270686 0.234510 -0.116930
v 0.274850 0.234510 0.098115
v 0.507509 1.873715 -0.012929
v 0.720201 1.850316 -0.014291
v 0.916216 1.825489 -0.015051
v 0.922007 1.821292 -0.062263
v 0.742470 1.846119 -0.061503
v 0.505640 1.869518 -0.060141
v 0.514629 1.908256 0.017331
v 0.729180 1.882492 0.015969
v 0.926231 1.856345 0.015209
v 0.929380 1.846211 -0.098770
v 0.748805 1.872358 -0.098010
v 0.510117 1.898122 -0.096648
v 0.938381 1.892677 -0.103187
v 0.757178 1.918903 -0.102427
v 0.517363 1.944808 -0.101065
v 0.938529 1.932918 -0.025716
v 0.740850 1.959143 -0.024955
v 0.525173 1.985048 -0.023593
v 0.523304 1.980851 -0.070805
v 0.763118 1.954946 -0.072167
v 0.944321 1.928720 -0.072927
v 0.935233 1.902811 0.010791
v 0.737553 1.929036 0.011552
v 0.521876 1.954942 0.012914
v 0.689859 1.853545 -0.061503
v 0.696195 1.879785 -0.098010
v 0.704568 1.926329 -0.102427
v 0.710508 1.962372 -0.072167
v 0.116387 1.425128 -0.143806
v 0.129380 1.425287 0.150799
v 0.000000 1.423706 0.149752
v 0.000000 1.423706 -0.143791
v 0.148224 2.763229 0.129036
v 0.000000 2.805653 0.039405
v 0.263819 2.730083 0.115212
v 0.311416 1.481402 0.058053
v 0.248584 1.435562 0.152353
v 0.305314 1.478786 -0.082074
v 0.243423 1.435163 -0.158826
v 0.122844 1.416944 0.177627
v 0.000000 1.415363 0.181842
v 0.137235 1.424592 -0.167201
v 0.000000 1.415363 -0.168493
usemtl None
s off
f 100 445 697 330
f 14 9 336 343
f 12 13 344 338
f 13 14 343 344
f 219 217 22 19
f 216 218 20 21
f 217 216 21 22
f 19 22 34 31
f 21 20 32 33
f 22 21 33 34
f 220 221 17 18
f 221 222 16 17
f 218 223 15 20
f 222 219 19 16
f 223 220 18 15
f 197 191 42 39
f 190 196 40 41
f 191 190 41 42
f 18 17 29 30
f 17 16 28 29
f 20 15 27 32
f 16 19 31 28
f 15 18 30 27
f 39 42 139 136
f 41 40 137 138
f 42 41 138 139
f 200 205 37 38
f 205 208 36 37
f 196 211 35 40
f 208 197 39 36
f 211 200 38 35
f 103 46 105 104
f 116 113 119 122
f 72 73 108 107
f 74 76 126 125
f 114 110 118 120
f 472 117 123 481
f 63 61 60 58
f 11 335 394 52
f 128 129 105 46
f 113 114 120 119
f 4 11 52 51
f 58 60 87 85
f 59 57 84 86
f 60 59 86 87
f 64 63 58 54
f 65 66 56 55
f 67 65 55 53
f 66 64 54 56
f 62 67 53 57
f 4 51 63 64
f 5 6 66 65
f 3 5 65 67
f 6 4 64 66
f 50 3 67 62
f 51 61 63
f 52 394 412 70
f 51 52 70 68
f 71 62 57 59
f 61 71 59 60
f 61 68 23 25
f 71 61 25 24
f 71 50 62
f 61 51 68
f 127 49 77
f 110 461 474 118
f 302 296 95 93
f 295 301 92 94
f 296 295 94 95
f 54 58 85 81
f 55 56 83 82
f 53 55 82 80
f 56 54 81 83
f 57 53 80 84
f 305 302 93 89
f 308 313 91 90
f 314 308 90 88
f 313 305 89 91
f 301 314 88 92
f 1 97 12
f 96 97 1 8
f 99 96 8 7
f 98 99 7 2
f 2 9 98
f 45 102 78
f 130 131 103 104
f 129 130 104 105
f 131 128 46 103
f 384 106 49 390
f 77 49 106
f 106 45 78 77
f 107 108 45 106
f 454 107 106 384
f 108 457 458 45
f 117 111 115
f 464 111 117 472
f 109 460 461 110
f 112 466 460 109
f 112 109 113 116
f 111 464 466 112
f 109 110 114 113
f 111 112 116 115
f 44 43 122 119
f 115 116 122 121
f 117 115 121 123
f 43 78 121 122
f 688 386 48 47
f 77 78 43 79
f 74 44 75 76
f 79 43 44 74
f 473 102 45 458
f 391 323 118 474
f 102 473 481 123
f 324 44 119 120
f 323 324 120 118
f 78 102 123 121
f 390 49 127 484
f 77 79 124 127
f 79 74 125 124
f 76 48 126
f 482 125 126 483
f 485 124 125 482
f 484 127 124 485
f 48 386 483 126
f 48 76 129 128
f 75 47 131 130
f 76 75 130 129
f 47 48 128 131
f 25 23 328 327
f 322 1 12
f 101 24 325 326
f 24 25 327 325
f 685 322 12 338
f 23 100 330 328
f 70 412 445 100
f 413 69 26 446
f 68 70 100 23
f 280 278 147 144
f 277 279 145 146
f 278 277 146 147
f 38 37 134 135
f 37 36 133 134
f 40 35 132 137
f 36 39 136 133
f 35 38 135 132
f 144 147 155 152
f 146 145 153 154
f 147 146 154 155
f 281 282 142 143
f 282 283 141 142
f 279 284 140 145
f 283 280 144 141
f 284 281 143 140
f 178 177 163 160
f 186 156 167 182
f 177 176 162 163
f 143 142 150 151
f 142 141 149 150
f 145 140 148 153
f 141 144 152 149
f 140 143 151 148
f 153 148 175 161
f 156 161 166 167
f 179 159 173 187
f 179 180 158 159
f 180 181 157 158
f 154 153 161 156
f 181 178 160 157
f 187 173 169 184
f 182 183 170 171
f 176 154 156 186
f 183 185 168 170
f 185 184 169 168
f 161 175 164 166
f 175 174 165 164
f 148 151 174 175
f 152 155 177 178
f 172 186 182 171
f 155 154 176 177
f 151 179 187 174
f 151 150 180 179
f 150 149 181 180
f 149 152 178 181
f 174 187 184 165
f 167 166 183 182
f 162 176 186 172
f 166 164 185 183
f 164 165 184 185
f 159 158 163 162
f 160 163 158 157
f 162 172 173 159
f 171 169 173 172
f 168 169 171 170
f 10 3 50 69
f 337 10 69 413
f 69 50 101 26
f 50 71 24 101
f 31 34 193 199
f 195 210 215 214
f 198 192 191 197
f 33 32 194 188
f 188 194 195 189
f 189 214 196 190
f 34 33 188 193
f 193 188 189 192
f 192 189 190 191
f 30 29 203 202
f 202 203 204 201
f 201 204 205 200
f 29 28 206 203
f 203 206 213 204
f 198 212 192
f 32 27 209 194
f 194 209 210 195
f 214 215 211 196
f 28 31 199 206
f 213 207 204
f 213 212 198 207
f 27 30 202 209
f 209 202 201 210
f 215 201 200 211
f 199 193 192 212
f 204 207 208 205
f 206 199 212 213
f 207 198 197 208
f 210 201 215
f 214 189 195
f 9 14 217 219
f 13 12 218 216
f 14 13 216 217
f 96 99 221 220
f 99 98 222 221
f 12 97 223 218
f 98 9 219 222
f 97 96 220 223
f 72 11 4 6
f 10 73 5 3
f 73 72 6 5
f 345 335 11 72
f 337 346 73 10
f 345 72 107 454
f 73 346 457 108
f 232 231 230 229
f 271 276 245 243
f 250 251 227 226
f 252 250 226 224
f 249 256 225 258
f 272 273 244 275
f 94 92 247 228
f 254 232 274 247
f 246 95 94 228
f 275 245 276 272
f 247 257 254
f 273 271 243 244
f 233 234 235 236
f 263 234 233 264
f 265 235 234 263
f 266 236 235 265
f 264 233 236 266
f 249 248 256
f 267 238 237 268
f 269 253 238 267
f 268 237 239 270
f 89 249 258
f 259 241 255 260
f 261 242 241 259
f 262 240 242 261
f 93 95 246 248
f 89 93 248 249
f 90 91 251 250
f 88 90 252
f 251 91 258
f 92 88 257 247
f 227 251 258 225
f 231 256 248 230
f 229 230 246 228
f 230 248 246
f 252 257 88
f 269 254 224 270
f 260 255 240 262
f 237 238 253 239
f 89 258 91
f 241 242 240 255
f 90 250 252
f 224 254 257 252
f 231 259 260 256
f 227 261 259 231
f 225 262 261 227
f 256 260 262 225
f 232 263 264 231
f 226 265 263 232
f 227 266 265 226
f 231 264 266 227
f 232 267 268 226
f 254 269 267 232
f 226 268 270 224
f 253 269 270 239
f 247 274 276 271
f 229 228 273 272
f 228 247 271 273
f 229 274 232
f 229 272 276 274
f 243 245 275 244
f 286 285 278 280
f 288 289 279 277
f 285 288 277 278
f 287 290 282 281
f 290 291 283 282
f 289 292 284 279
f 291 286 280 283
f 292 287 281 284
f 136 139 285 286
f 138 137 289 288
f 139 138 288 285
f 135 134 290 287
f 134 133 291 290
f 137 132 292 289
f 133 136 286 291
f 132 135 287 292
f 85 87 298 304
f 304 298 317 318
f 303 297 296 302
f 86 84 299 293
f 293 299 300 294
f 294 300 301 295
f 87 86 293 298
f 298 293 294 317
f 297 294 295 296
f 81 85 304 307
f 307 304 318 319
f 306 303 302 305
f 82 83 311 310
f 310 311 320 309
f 309 312 313 308
f 80 82 310 316
f 316 310 309 315
f 315 309 308 314
f 83 81 307 311
f 311 307 319 320
f 312 306 305 313
f 84 80 316 299
f 299 316 315 300
f 300 315 314 301
f 309 320 312
f 297 317 294
f 306 312 320 319
f 303 306 319 318
f 297 303 318 317
f 446 26 329 695
f 26 101 326 329
f 321 686 336 9
f 2 321 9
f 688 47 323 391
f 75 44 324
f 323 47 75 324
f 685 695 329 322
f 322 329 326 1
f 1 326 325 8
f 8 325 327 7
f 7 327 328 2
f 2 328 330 321
f 321 330 697 686
f 447 696 697 445
f 352 343 336 347
f 350 338 344 351
f 351 344 343 352
f 581 357 360 579
f 578 359 358 580
f 579 360 359 578
f 357 369 372 360
f 359 371 370 358
f 360 372 371 359
f 582 356 355 583
f 583 355 354 584
f 580 358 353 585
f 584 354 357 581
f 585 353 356 582
f 559 377 380 553
f 552 379 378 558
f 553 380 379 552
f 356 368 367 355
f 355 367 366 354
f 358 370 365 353
f 354 366 369 357
f 353 365 368 356
f 377 498 501 380
f 379 500 499 378
f 380 501 500 379
f 562 376 375 567
f 567 375 374 570
f 558 378 373 573
f 570 374 377 559
f 573 373 376 562
f 450 451 452 385
f 470 479 476 467
f 417 455 456 418
f 419 487 488 421
f 468 477 475 462
f 472 481 480 471
f 406 401 403 404
f 349 395 394 335
f 490 385 452 491
f 467 476 477 468
f 334 393 395 349
f 401 430 432 403
f 402 431 429 400
f 403 432 431 402
f 407 397 401 406
f 408 398 399 409
f 410 396 398 408
f 409 399 397 407
f 405 400 396 410
f 334 407 406 393
f 339 408 409 340
f 333 410 408 339
f 340 409 407 334
f 392 405 410 333
f 393 406 404
f 395 415 412 394
f 393 411 415 395
f 416 402 400 405
f 404 403 402 416
f 404 363 361 411
f 416 362 363 404
f 416 405 392
f 404 411 393
f 489 422 389
f 462 475 474 461
f 664 438 440 658
f 657 439 437 663
f 658 440 439 657
f 397 426 430 401
f 398 427 428 399
f 396 425 427 398
f 399 428 426 397
f 400 429 425 396
f 667 434 438 664
f 670 435 436 675
f 676 433 435 670
f 675 436 434 667
f 663 437 433 676
f 331 350 442
f 441 342 331 442
f 444 341 342 441
f 443 332 341 444
f 332 443 347
f 383 423 449
f 492 451 450 493
f 491 452 451 492
f 493 450 385 490
f 384 390 389 453
f 422 453 389
f 453 422 423 383
f 455 453 383 456
f 454 384 453 455
f 456 383 458 457
f 471 469 463
f 464 472 471 463
f 459 462 461 460
f 465 459 460 466
f 465 470 467 459
f 463 465 466 464
f 459 467 468 462
f 463 469 470 465
f 382 476 479 381
f 469 478 479 470
f 471 480 478 469
f 381 479 478 423
f 688 387 388 386
f 422 424 381 423
f 419 421 420 382
f 424 419 382 381
f 473 458 383 449
f 391 474 475 687
f 449 480 481 473
f 689 477 476 382
f 687 475 477 689
f 423 478 480 449
f 390 484 489 389
f 422 489 486 424
f 424 486 487 419
f 421 488 388
f 482 483 488 487
f 485 482 487 486
f 484 485 486 489
f 388 488 483 386
f 388 490 491 421
f 420 492 493 387
f 421 491 492 420
f 387 493 490 388
f 363 692 693 361
f 684 350 331
f 448 691 690 362
f 362 690 692 363
f 685 338 350 684
f 361 693 696 447
f 415 447 445 412
f 413 446 364 414
f 411 361 447 415
f 642 506 509 640
f 639 508 507 641
f 640 509 508 639
f 376 497 496 375
f 375 496 495 374
f 378 499 494 373
f 374 495 498 377
f 373 494 497 376
f 506 514 517 509
f 508 516 515 507
f 509 517 516 508
f 643 505 504 644
f 644 504 503 645
f 641 507 502 646
f 645 503 506 642
f 646 502 505 643
f 540 522 525 539
f 548 544 529 518
f 539 525 524 538
f 505 513 512 504
f 504 512 511 503
f 507 515 510 502
f 503 511 514 506
f 502 510 513 505
f 515 523 537 510
f 518 529 528 523
f 541 549 535 521
f 541 521 520 542
f 542 520 519 543
f 516 518 523 515
f 543 519 522 540
f 549 546 531 535
f 544 533 532 545
f 538 548 518 516
f 545 532 530 547
f 547 530 531 546
f 523 528 526 537
f 537 526 527 536
f 510 537 536 513
f 514 540 539 517
f 534 533 544 548
f 517 539 538 516
f 513 536 549 541
f 513 541 542 512
f 512 542 543 511
f 511 543 540 514
f 536 527 546 549
f 529 544 545 528
f 524 534 548 538
f 528 545 547 526
f 526 547 546 527
f 521 524 525 520
f 522 519 520 525
f 524 521 535 534
f 533 534 535 531
f 530 532 533 531
f 348 414 392 333
f 337 413 414 348
f 414 364 448 392
f 392 448 362 416
f 369 561 555 372
f 557 576 577 572
f 560 559 553 554
f 371 550 556 370
f 550 551 557 556
f 551 552 558 576
f 372 555 550 371
f 555 554 551 550
f 554 553 552 551
f 368 564 565 367
f 564 563 566 565
f 563 562 567 566
f 367 565 568 366
f 565 566 575 568
f 560 554 574
f 370 556 571 365
f 556 557 572 571
f 576 558 573 577
f 366 568 561 369
f 575 566 569
f 575 569 560 574
f 365 571 564 368
f 571 572 563 564
f 577 573 562 563
f 561 574 554 555
f 566 567 570 569
f 568 575 574 561
f 569 570 559 560
f 572 577 563
f 576 557 551
f 347 581 579 352
f 351 578 580 350
f 352 579 578 351
f 441 582 583 444
f 444 583 584 443
f 350 580 585 442
f 443 584 581 347
f 442 585 582 441
f 417 340 334 349
f 348 333 339 418
f 418 339 340 417
f 345 417 349 335
f 337 348 418 346
f 345 454 455 417
f 418 456 457 346
f 594 591 592 593
f 633 605 607 638
f 612 588 589 613
f 614 586 588 612
f 611 620 587 618
f 634 637 606 635
f 439 590 609 437
f 616 609 636 594
f 608 590 439 440
f 637 634 638 607
f 609 616 619
f 635 606 605 633
f 595 598 597 596
f 625 626 595 596
f 627 625 596 597
f 628 627 597 598
f 626 628 598 595
f 611 618 610
f 629 630 599 600
f 631 629 600 615
f 630 632 601 599
f 434 620 611
f 621 622 617 603
f 623 621 603 604
f 624 623 604 602
f 438 610 608 440
f 434 611 610 438
f 435 612 613 436
f 433 614 435
f 613 620 436
f 437 609 619 433
f 589 587 620 613
f 593 592 610 618
f 591 590 608 592
f 592 608 610
f 614 433 619
f 631 632 586 616
f 622 624 602 617
f 599 601 615 600
f 434 436 620
f 603 617 602 604
f 435 614 612
f 586 614 619 616
f 593 618 622 621
f 589 593 621 623
f 587 589 623 624
f 618 587 624 622
f 594 593 626 625
f 588 594 625 627
f 589 588 627 628
f 593 589 628 626
f 594 588 630 629
f 616 594 629 631
f 588 586 632 630
f 615 601 632 631
f 609 633 638 636
f 591 634 635 590
f 590 635 633 609
f 591 594 636
f 591 636 638 634
f 605 606 637 607
f 648 642 640 647
f 650 639 641 651
f 647 640 639 650
f 649 643 644 652
f 652 644 645 653
f 651 641 646 654
f 653 645 642 648
f 654 646 643 649
f 498 648 647 501
f 500 650 651 499
f 501 647 650 500
f 497 649 652 496
f 496 652 653 495
f 499 651 654 494
f 495 653 648 498
f 494 654 649 497
f 430 666 660 432
f 666 680 679 660
f 665 664 658 659
f 431 655 661 429
f 655 656 662 661
f 656 657 663 662
f 432 660 655 431
f 660 679 656 655
f 659 658 657 656
f 426 669 666 430
f 669 681 680 666
f 668 667 664 665
f 427 672 673 428
f 672 671 682 673
f 671 670 675 674
f 425 678 672 427
f 678 677 671 672
f 677 676 670 671
f 428 673 669 426
f 673 682 681 669
f 674 675 667 668
f 429 661 678 425
f 661 662 677 678
f 662 663 676 677
f 671 674 682
f 659 656 679
f 668 681 682 674
f 665 680 681 668
f 659 679 680 665
f 446 695 694 364
f 364 694 691 448
f 683 347 336 686
f 332 347 683
f 688 391 687 387
f 420 689 382
f 687 689 420 387
f 685 684 694 695
f 684 331 691 694
f 331 342 690 691
f 342 341 692 690
f 341 332 693 692
f 332 683 696 693
f 683 686 697 696
o Cube.002_Cube.003
v 0.286705 1.950429 0.085196
v 0.198247 1.956240 0.090085
v 0.162654 1.768449 -0.346853
v 0.267175 1.777586 -0.128290
v 0.198247 1.957723 0.037588
v 0.302831 1.953408 0.033877
v 0.162654 2.076942 -0.345219
v 0.277564 2.117814 -0.107894
v 0.162654 2.149984 -0.277112
v 0.272959 1.869170 -0.275578
v 0.267653 2.128808 -0.171209
v 0.286015 2.065401 -0.124218
v 0.275041 1.766720 -0.182261
v 0.281234 2.077633 -0.177743
v 0.292061 1.846101 -0.122867
v 0.254439 2.075577 -0.270630
v 0.288788 1.846101 -0.183124
v 0.198247 1.772637 -0.119226
v 0.198247 2.133465 -0.097918
v 0.198247 2.073867 -0.112714
v 0.162654 2.152663 -0.169653
v 0.162654 1.870818 -0.364764
v 0.198247 1.846101 -0.111735
v 0.251590 1.770833 -0.270072
v 0.312467 1.800239 -0.021286
v 0.291714 2.105568 -0.019913
v 0.294010 2.067958 -0.039139
v 0.307699 1.858800 -0.030899
v 0.232749 1.775557 -0.021286
v 0.198247 2.121138 -0.019913
v 0.198247 2.076719 -0.039139
v 0.216149 1.827328 -0.030899
v 0.298469 1.857610 0.061026
v 0.287529 2.059057 0.054654
v 0.297405 2.034935 0.015581
v 0.301935 1.902240 0.012567
v 0.214440 1.832657 0.063171
v 0.198247 2.068784 0.062289
v 0.198247 2.042571 0.018532
v 0.202596 1.869595 0.017039
v 0.169923 1.709798 -0.181957
v 0.169923 1.718927 -0.291139
v 0.269645 1.962213 -0.276399
v 0.289038 1.955751 -0.146886
v 0.285011 1.961867 -0.184553
v 0.162654 1.984178 -0.360484
v 0.198247 1.959984 -0.135568
v -0.286705 1.950429 0.085196
v -0.198247 1.956240 0.090085
v -0.162654 1.768449 -0.346853
v -0.267175 1.777586 -0.128290
v -0.198247 1.957723 0.037588
v -0.302831 1.953408 0.033877
v -0.162654 2.076942 -0.345219
v -0.277564 2.117814 -0.107894
v -0.162654 2.149984 -0.277112
v -0.272959 1.869170 -0.275578
v 0.000000 2.080126 -0.351090
v 0.000000 1.769659 -0.353243
v -0.267653 2.128808 -0.171209
v -0.286015 2.065401 -0.124218
v -0.275041 1.766720 -0.182261
v 0.000000 2.134279 -0.109606
v 0.000000 1.775022 -0.122793
v -0.281234 2.077633 -0.177743
v 0.000000 2.068598 -0.114375
v 0.000000 2.162696 -0.179446
v 0.000000 2.153096 -0.287452
v -0.292061 1.846101 -0.122867
v -0.254439 2.075577 -0.270630
v 0.000000 1.870818 -0.373109
v -0.288788 1.846101 -0.183124
v 0.000000 1.846101 -0.116018
v -0.198247 1.772637 -0.119226
v -0.198247 2.133465 -0.097918
v -0.198247 2.073867 -0.112714
v -0.162654 2.152663 -0.169653
v -0.162654 1.870818 -0.364764
v -0.198247 1.846101 -0.111735
v -0.251590 1.770833 -0.270072
v -0.312467 1.800239 -0.021286
v -0.291714 2.105568 -0.019913
v -0.294010 2.067958 -0.039139
v -0.307699 1.858800 -0.030899
v -0.232749 1.775557 -0.021286
v -0.198247 2.121138 -0.019913
v -0.198247 2.076719 -0.039139
v -0.216149 1.827328 -0.030899
v -0.298469 1.857610 0.061026
v -0.287529 2.059057 0.054654
v -0.297405 2.034935 0.015581
v -0.301935 1.902240 0.012567
v -0.214440 1.832657 0.063171
v -0.198247 2.068784 0.062289
v -0.198247 2.042571 0.018532
v -0.202596 1.869595 0.017039
v -0.169923 1.709798 -0.181957
v 0.000000 1.700521 -0.181984
v 0.000000 1.717391 -0.296156
v -0.169923 1.718927 -0.291139
v -0.269645 1.962213 -0.276399
v -0.289038 1.955751 -0.146886
v 0.000000 1.985770 -0.367592
v -0.285011 1.961867 -0.184553
v 0.000000 1.957350 -0.133504
v -0.162654 1.984178 -0.360484
v -0.198247 1.959984 -0.135568
usemtl None
s off
f 714 712 701 710
f 707 714 710 721
f 720 770 761 715
f 730 733 703 698
f 734 730 698 699
f 737 734 699 702
f 716 718 764 760
f 742 741 712 714
f 733 737 702 703
f 740 742 714 707
f 744 802 770 720
f 709 705 723 724
f 705 708 718 716
f 800 743 719 768
f 741 744 720 712
f 718 706 765 764
f 700 721 739
f 708 705 709 711
f 716 760 763 717
f 721 710 738 739
f 716 717 728 727
f 724 723 731 732
f 727 728 736 735
f 720 715 726 729
f 712 720 729 725
f 717 709 724 728
f 705 716 727 723
f 715 701 722 726
f 701 712 725 722
f 729 726 734 737
f 725 729 737 733
f 728 724 732 736
f 723 727 735 731
f 726 722 730 734
f 722 725 733 730
f 703 702 736 732
f 702 699 735 736
f 699 698 731 735
f 698 703 732 731
f 710 701 738
f 711 709 741 742
f 713 711 742 740
f 717 763 802 744
f 709 717 744 741
f 756 700 739 796
f 795 796 739 738
f 715 738 701
f 761 795 738 715
f 768 719 700 756
f 708 706 718
f 743 740 707 719
f 719 707 721 700
f 706 708 711 713
f 706 704 755 765
f 704 706 713
f 755 704 743 800
f 704 713 740 743
f 769 759 748 766
f 754 777 759 769
f 776 771 761 770
f 786 745 750 789
f 790 746 745 786
f 793 749 746 790
f 772 760 764 774
f 801 769 766 799
f 789 750 749 793
f 798 754 769 801
f 804 776 770 802
f 758 780 779 752
f 752 772 774 757
f 800 768 775 803
f 799 766 776 804
f 774 764 765 753
f 747 797 777
f 757 762 758 752
f 772 773 763 760
f 777 797 794 759
f 772 783 784 773
f 780 788 787 779
f 783 791 792 784
f 776 785 782 771
f 766 781 785 776
f 773 784 780 758
f 752 779 783 772
f 771 782 778 748
f 748 778 781 766
f 785 793 790 782
f 781 789 793 785
f 784 792 788 780
f 779 787 791 783
f 782 790 786 778
f 778 786 789 781
f 750 788 792 749
f 749 792 791 746
f 746 791 787 745
f 745 787 788 750
f 759 794 748
f 762 801 799 758
f 767 798 801 762
f 773 804 802 763
f 758 799 804 773
f 756 796 797 747
f 795 794 797 796
f 771 748 794
f 761 771 794 795
f 768 756 747 775
f 757 774 753
f 803 775 754 798
f 775 747 777 754
f 753 767 762 757
f 753 765 755 751
f 751 767 753
f 755 800 803 751
f 751 803 798 767
o Cube.001_Cube.002
v 0.254653 2.319509 -0.102891
v 0.183145 2.220250 -0.111390
v 0.443143 2.525523 -0.142674
v 0.254915 2.329100 -0.217112
v 0.183406 2.229841 -0.225610
v -0.310931 1.571425 -0.224516
v 0.297191 2.291528 -0.132694
v 0.297327 2.296525 -0.192200
v 0.168319 2.235747 -0.167636
v 0.284149 2.303509 -0.161681
v 0.456777 2.518363 -0.173765
v 0.456638 2.513273 -0.113151
v 0.149691 2.253964 -0.223662
v 0.221200 2.353223 -0.215163
v 0.149429 2.244372 -0.109441
v 0.220938 2.343632 -0.100943
v 0.128605 2.264161 -0.165341
v 0.200114 2.363420 -0.156842
v 0.465975 2.581382 -0.089932
v 0.425716 2.525500 -0.094717
v 0.501879 2.586015 -0.089461
v 0.432791 2.490116 -0.097672
v 0.437813 2.559188 -0.091860
v 0.473076 2.565094 -0.098911
v 0.466189 2.589233 -0.183431
v 0.425930 2.533351 -0.188216
v 0.502093 2.593867 -0.182960
v 0.433005 2.497967 -0.191171
v 0.438027 2.567039 -0.185359
v 0.473059 2.564458 -0.091337
v 0.473127 2.571566 -0.184899
v 0.444946 2.532448 -0.188248
v 0.498260 2.574809 -0.184569
v 0.449898 2.507680 -0.190316
v 0.453414 2.556030 -0.186248
v 0.444072 2.524222 -0.094782
v 0.498909 2.567794 -0.090998
v 0.449166 2.498746 -0.096910
v 0.452782 2.548478 -0.092725
v 0.473107 2.570839 -0.176243
v 0.444926 2.531721 -0.179592
v 0.498240 2.574082 -0.175913
v 0.449878 2.506953 -0.181660
v 0.453394 2.555303 -0.177592
v 0.444089 2.524858 -0.102356
v 0.498927 2.568430 -0.098572
v 0.449183 2.499382 -0.104484
v 0.452800 2.549114 -0.100299
v 0.380066 2.229779 -0.110139
v 0.308557 2.130520 -0.118637
v 0.511283 2.476770 -0.146612
v 0.380327 2.239371 -0.224359
v 0.308819 2.140112 -0.232858
v -0.154739 1.459674 -0.233543
v -0.214187 1.544484 -0.264576
v 0.477293 2.504065 -0.179399
v 0.477134 2.498228 -0.109886
v 0.337760 2.262502 -0.135038
v 0.337896 2.267499 -0.194544
v 0.323644 2.124615 -0.176612
v 0.351035 2.255653 -0.165546
v 0.246054 2.182824 -0.203595
v 0.317567 2.282315 -0.197881
v 0.245909 2.177538 -0.140652
v 0.317410 2.276562 -0.129370
v -0.214360 1.538144 -0.189071
v 0.497788 2.489020 -0.176135
v 0.497650 2.483930 -0.115521
v 0.342534 2.115989 -0.234806
v 0.414042 2.215248 -0.226308
v 0.342272 2.106398 -0.120586
v 0.413781 2.205657 -0.112087
v 0.246112 2.184976 -0.229234
v 0.317621 2.284235 -0.220736
v 0.245851 2.175385 -0.115013
v 0.317359 2.274644 -0.106515
v 0.477213 2.501147 -0.144643
v -0.300122 1.422150 -0.237026
v 0.363358 2.096201 -0.178907
v 0.434867 2.195460 -0.170408
v 0.560754 2.513570 -0.095409
v 0.520494 2.457688 -0.100194
v 0.532850 2.574524 -0.090355
v 0.453619 2.464546 -0.099771
v 0.553679 2.548954 -0.092454
v 0.484591 2.453054 -0.100665
v 0.548656 2.479882 -0.098266
v 0.542415 2.515483 -0.102918
v 0.560968 2.521421 -0.188908
v 0.520709 2.465539 -0.193693
v 0.533064 2.582375 -0.183854
v 0.453833 2.472397 -0.193270
v 0.553893 2.556805 -0.185953
v 0.484805 2.460906 -0.194164
v 0.548870 2.487733 -0.191765
v 0.542397 2.514848 -0.095344
v 0.541952 2.522324 -0.188876
v 0.513770 2.483206 -0.192225
v 0.521180 2.565878 -0.185266
v 0.465718 2.488894 -0.191858
v 0.536999 2.547092 -0.186807
v 0.488637 2.479963 -0.192555
v 0.533483 2.498742 -0.190875
v 0.493456 2.527654 -0.191757
v 0.513411 2.474612 -0.098789
v 0.521758 2.559127 -0.091673
v 0.464711 2.479943 -0.098453
v 0.537303 2.540324 -0.093217
v 0.487560 2.471276 -0.099128
v 0.533687 2.490592 -0.097401
v 0.541932 2.521597 -0.180220
v 0.513750 2.482479 -0.183569
v 0.521160 2.565152 -0.176610
v 0.465698 2.488167 -0.183202
v 0.536979 2.546365 -0.178151
v 0.488618 2.479236 -0.183899
v 0.533463 2.498015 -0.182219
v 0.513428 2.475248 -0.106363
v 0.521775 2.559763 -0.099247
v 0.464729 2.480579 -0.106027
v 0.537321 2.540960 -0.100791
v 0.487577 2.471912 -0.106703
v 0.533704 2.491228 -0.104975
v 0.493224 2.519132 -0.090263
usemtl None
s off
f 817 821 822 818
f 811 869 861 816
f 813 821 817
f 819 806 805 820
f 877 809 808 878
f 869 811 805 880
f 813 868 806 819
f 811 814 820 805
f 809 817 818 808
f 821 819 820 822
f 806 879 880 805
f 866 813 817 809
f 812 867 878 808
f 867 812 815 860
f 868 879 806
f 859 810 813 866
f 866 809 877
f 810 870 868 813
f 813 819 821
f 870 810 882
f 810 859 882
f 881 860 815
f 861 881 816
f 826 842 840 824
f 823 834 841 825
f 825 841 910 887
f 888 911 842 826
f 830 836 838 832
f 831 837 835 829
f 895 903 837 831
f 832 838 904 896
f 826 832 896 888
f 887 895 831 825
f 825 831 829 823
f 824 830 832 826
f 823 829 833 827
f 827 833 830 824
f 829 835 839 833
f 833 839 836 830
f 842 851 849 840
f 834 828 850 841
f 841 850 923 910
f 911 924 851 842
f 827 843 834 823
f 824 840 843 827
f 928 850 828 852
f 851 928 852 849
f 928 923 850
f 924 928 851
f 843 852 828 834
f 840 849 852 843
f 838 847 918 904
f 903 917 846 837
f 837 846 844 835
f 836 845 847 838
f 835 844 848 839
f 839 848 845 836
f 812 814 807 815
f 814 812 808 818
f 814 811 816 807
f 814 818 822
f 814 822 820
f 881 815 807
f 816 881 807
f 845 908 847
f 846 908 844
f 917 908 846
f 847 908 918
f 844 908 848
f 848 908 845
f 873 874 884 883
f 862 872 861 869
f 864 873 883
f 875 876 853 854
f 877 878 856 857
f 869 880 853 862
f 864 875 854 868
f 862 853 876 865
f 857 856 874 873
f 883 884 876 875
f 854 853 880 879
f 866 857 873 864
f 863 856 878 867
f 867 860 871 863
f 868 854 879
f 859 866 864 858
f 866 877 857
f 858 864 868 870
f 864 883 875
f 870 882 858
f 858 882 859
f 881 871 860
f 861 872 881
f 890 886 909 913
f 885 889 912 900
f 889 887 910 912
f 888 890 913 911
f 894 898 906 902
f 897 893 901 905
f 895 897 905 903
f 898 896 904 906
f 890 888 896 898
f 887 889 897 895
f 889 885 893 897
f 886 890 898 894
f 885 891 899 893
f 891 886 894 899
f 893 899 907 901
f 899 894 902 907
f 913 909 922 926
f 900 912 925 892
f 912 910 923 925
f 911 913 926 924
f 891 885 900 914
f 886 891 914 909
f 928 927 892 925
f 926 922 927 928
f 928 925 923
f 924 926 928
f 914 900 892 927
f 909 914 927 922
f 906 904 918 920
f 903 905 919 917
f 905 901 915 919
f 902 906 920 916
f 901 907 921 915
f 907 902 916 921
f 863 871 855 865
f 865 874 856 863
f 865 855 872 862
f 865 884 874
f 865 876 884
f 881 855 871
f 872 855 881
f 916 920 908
f 919 915 908
f 917 919 908
f 920 918 908
f 915 921 908
f 921 916 908
